<svg width="64" height="59" viewBox="0 0 64 59" fill="none" xmlns="http://www.w3.org/2000/svg">
<path d="M9.4951 52.4897L4.50488 0.765625H59.338L54.3422 52.4819L31.888 58.2344L9.4951 52.4897Z" fill="#081D22"/>
<path d="M31.9214 53.8374L50.0657 49.1884L54.3347 4.99463H31.9214V53.8374Z" fill="#1D7873"/>
<path d="M31.9216 24.1785H22.838L22.2105 17.682H31.9216V11.3386H14.7085L14.8731 13.0404L16.5599 30.5224H31.9216V24.1785ZM31.9216 40.6538L31.8912 40.6616L24.2465 38.7533L23.4425 29.7305L16.5599 30.5224L17.8283 43.6549L31.8902 47.2622L31.9216 47.2544V40.6538Z" fill="#EBEBEB"/>
<path d="M31.9214 24.1895H41.6602L42.3329 17.6877H31.9214V11.3391H50.376L50.1995 13.0423L48.391 30.5386H31.9214V24.1895ZM31.9214 40.6783L31.954 40.6862L40.15 38.7763L41.0121 29.7461L48.391 30.5386L47.0311 43.682L31.9551 47.2922L31.9214 47.2844V40.6783Z" fill="#EBEBEB"/>
<line x1="32.4214" y1="17.5156" x2="32.4214" y2="41.9453" stroke="#EBEBEB"/>
<line y1="-0.5" x2="11.7308" y2="-0.5" transform="matrix(0.807846 0.589394 -0.649534 0.760333 22.4448 17.5156)" stroke="#EBEBEB"/>
<line y1="-0.5" x2="12.9696" y2="-0.5" transform="matrix(-0.846054 0.533097 -0.59369 -0.804694 42.8945 17.5156)" stroke="#EBEBEB"/>
</svg>
