<svg width="25" height="25" viewBox="0 0 25 25" fill="none" xmlns="http://www.w3.org/2000/svg">
<path d="M21.8189 16.9626C19.3689 15.7084 16.1897 14.6876 12.5002 14.6876C8.81058 14.6876 5.63141 15.7084 3.18141 16.9626C1.72308 17.7063 0.833496 19.2084 0.833496 20.8417V24.8959H24.1668V20.8417C24.1668 19.2084 23.2772 17.7063 21.8189 16.9626ZM21.2502 21.9792H3.75016V20.8417C3.75016 20.2876 4.04183 19.7917 4.5085 19.5584C6.24391 18.6688 9.04391 17.6042 12.5002 17.6042C15.9564 17.6042 18.7564 18.6688 20.4918 19.5584C20.9585 19.7917 21.2502 20.2876 21.2502 20.8417V21.9792Z" fill="#1D7873"/>
<path d="M21.8189 16.9626C19.3689 15.7084 16.1897 14.6876 12.5002 14.6876C8.81058 14.6876 5.63141 15.7084 3.18141 16.9626C1.72308 17.7063 0.833496 19.2084 0.833496 20.8417V24.8959H24.1668V20.8417C24.1668 19.2084 23.2772 17.7063 21.8189 16.9626ZM21.2502 21.9792H3.75016V20.8417C3.75016 20.2876 4.04183 19.7917 4.5085 19.5584C6.24391 18.6688 9.04391 17.6042 12.5002 17.6042C15.9564 17.6042 18.7564 18.6688 20.4918 19.5584C20.9585 19.7917 21.2502 20.2876 21.2502 20.8417V21.9792Z" fill="#1D7873"/>
<path d="M12.5002 13.2292C15.7231 13.2292 18.3335 10.6188 18.3335 7.39592C18.3335 5.398 18.3335 2.29175 18.3335 2.29175C18.3335 1.08133 17.3564 0.104248 16.146 0.104248C15.3877 0.104248 14.7168 0.497998 14.3231 1.08133C13.9293 0.497998 13.2585 0.104248 12.5002 0.104248C11.7418 0.104248 11.071 0.497998 10.6772 1.08133C10.2835 0.497998 9.61266 0.104248 8.85433 0.104248C7.64391 0.104248 6.66683 1.08133 6.66683 2.29175C6.66683 2.29175 6.66683 5.38341 6.66683 7.39592C6.66683 10.6188 9.27725 13.2292 12.5002 13.2292ZM9.5835 3.75008H15.4168V7.39592C15.4168 9.00008 14.1043 10.3126 12.5002 10.3126C10.896 10.3126 9.5835 9.00008 9.5835 7.39592V3.75008Z" fill="#1D7873"/>
<path d="M12.5002 13.2292C15.7231 13.2292 18.3335 10.6188 18.3335 7.39592C18.3335 5.398 18.3335 2.29175 18.3335 2.29175C18.3335 1.08133 17.3564 0.104248 16.146 0.104248C15.3877 0.104248 14.7168 0.497998 14.3231 1.08133C13.9293 0.497998 13.2585 0.104248 12.5002 0.104248C11.7418 0.104248 11.071 0.497998 10.6772 1.08133C10.2835 0.497998 9.61266 0.104248 8.85433 0.104248C7.64391 0.104248 6.66683 1.08133 6.66683 2.29175C6.66683 2.29175 6.66683 5.38341 6.66683 7.39592C6.66683 10.6188 9.27725 13.2292 12.5002 13.2292ZM9.5835 3.75008H15.4168V7.39592C15.4168 9.00008 14.1043 10.3126 12.5002 10.3126C10.896 10.3126 9.5835 9.00008 9.5835 7.39592V3.75008Z" fill="#1D7873"/>
</svg>
