<svg width="16" height="17" viewBox="0 0 16 17" fill="none" xmlns="http://www.w3.org/2000/svg">
<path d="M7.99984 4.48337C10.5265 4.48337 12.7798 5.90337 13.8798 8.15003C13.4865 8.96337 12.9332 9.66337 12.2732 10.23L13.2132 11.17C14.1398 10.35 14.8732 9.32337 15.3332 8.15003C14.1798 5.22337 11.3332 3.15003 7.99984 3.15003C7.15317 3.15003 6.33984 3.28337 5.57317 3.53003L6.67317 4.63003C7.1065 4.54337 7.5465 4.48337 7.99984 4.48337ZM7.2865 5.24337L8.6665 6.62337C9.0465 6.79003 9.35317 7.0967 9.51984 7.4767L10.8998 8.8567C10.9532 8.63003 10.9932 8.39003 10.9932 8.14337C10.9998 6.49003 9.65317 5.15003 7.99984 5.15003C7.75317 5.15003 7.51984 5.18337 7.2865 5.24337ZM1.33984 3.06337L3.1265 4.85003C2.03984 5.70337 1.17984 6.8367 0.666504 8.15003C1.81984 11.0767 4.6665 13.15 7.99984 13.15C9.01317 13.15 9.9865 12.9567 10.8798 12.6034L13.1598 14.8834L14.0998 13.9434L2.27984 2.1167L1.33984 3.06337ZM6.33984 8.06337L8.07984 9.80337C8.05317 9.81003 8.0265 9.8167 7.99984 9.8167C7.07984 9.8167 6.33317 9.07003 6.33317 8.15003C6.33317 8.1167 6.33984 8.0967 6.33984 8.06337ZM4.07317 5.7967L5.23984 6.96337C5.0865 7.33003 4.99984 7.73003 4.99984 8.15003C4.99984 9.80337 6.3465 11.15 7.99984 11.15C8.41984 11.15 8.81984 11.0634 9.17984 10.91L9.83317 11.5634C9.2465 11.7234 8.63317 11.8167 7.99984 11.8167C5.47317 11.8167 3.21984 10.3967 2.11984 8.15003C2.5865 7.1967 3.2665 6.41003 4.07317 5.7967Z" fill="#606060"/>
</svg>
