<svg width="21" height="24" viewBox="0 0 21 24" fill="none" xmlns="http://www.w3.org/2000/svg">
<path d="M15.0421 7.7043C16.5858 8.81139 18.4763 9.46282 20.5181 9.46282V6.35875C19.3784 6.11511 18.3694 5.51738 17.6108 4.68597C16.3122 3.87276 15.3766 2.53118 15.1023 0.960938H12.2397V16.7116C12.2332 18.5478 10.7484 20.0346 8.91724 20.0346C7.83819 20.0346 6.87957 19.5184 6.27245 18.7188C5.18831 18.1696 4.44486 17.0423 4.44486 15.7404C4.44486 13.8991 5.93218 12.4062 7.76724 12.4062C8.11883 12.4062 8.4577 12.4611 8.77557 12.5624V9.42436C4.83484 9.50607 1.66553 12.7375 1.66553 16.7117C1.66553 18.6955 2.45476 20.494 3.73569 21.8081C4.89127 22.5868 6.28237 23.041 7.77905 23.041C11.7903 23.041 15.0422 19.7775 15.0422 15.7518V7.7043H15.0421Z" fill="white"/>
<path d="M20.5182 6.3578V5.51848C19.4904 5.52005 18.4828 5.23119 17.6108 4.68493C18.3827 5.53306 19.3992 6.11787 20.5182 6.3578ZM15.1023 0.959983C15.0762 0.809911 15.0561 0.658851 15.0421 0.507214V0H11.0896V15.7508C11.0833 17.5868 9.59854 19.0736 7.76726 19.0736C7.22962 19.0736 6.72201 18.9455 6.27247 18.7179C6.87959 19.5174 7.83822 20.0335 8.91727 20.0335C10.7482 20.0335 12.2333 18.5469 12.2397 16.7107V0.959983H15.1023ZM8.77576 9.4234V8.52989C8.4455 8.48459 8.11253 8.46186 7.77915 8.46202C3.76754 8.46194 0.515625 11.7254 0.515625 15.7508C0.515625 18.2745 1.79368 20.4987 3.73579 21.807C2.45486 20.493 1.66563 18.6944 1.66563 16.7106C1.66563 12.7365 4.83486 9.50511 8.77576 9.4234Z" fill="white"/>
</svg>
