<svg width="35" height="35" viewBox="0 0 35 35" fill="none" xmlns="http://www.w3.org/2000/svg">
<path d="M22.9762 20.7885H21.8242L21.4158 20.3947C22.845 18.7322 23.7054 16.5739 23.7054 14.226C23.7054 8.99058 19.4617 4.74683 14.2262 4.74683C8.99082 4.74683 4.74707 8.99058 4.74707 14.226C4.74707 19.4614 8.99082 23.7052 14.2262 23.7052C16.5742 23.7052 18.7325 22.8447 20.395 21.4156L20.7887 21.8239V22.976L28.0804 30.2531L30.2533 28.0802L22.9762 20.7885ZM14.2262 20.7885C10.595 20.7885 7.66374 17.8572 7.66374 14.226C7.66374 10.5947 10.595 7.66349 14.2262 7.66349C17.8575 7.66349 20.7887 10.5947 20.7887 14.226C20.7887 17.8572 17.8575 20.7885 14.2262 20.7885Z" fill="#0C0C0C"/>
</svg>
