<svg width="35" height="35" viewBox="0 0 35 35" fill="none" xmlns="http://www.w3.org/2000/svg">
<path d="M26.2502 8.75008H23.3335C23.3335 5.52716 20.7231 2.91675 17.5002 2.91675C14.2772 2.91675 11.6668 5.52716 11.6668 8.75008H8.75016C7.146 8.75008 5.8335 10.0626 5.8335 11.6667V29.1667C5.8335 30.7709 7.146 32.0834 8.75016 32.0834H26.2502C27.8543 32.0834 29.1668 30.7709 29.1668 29.1667V11.6667C29.1668 10.0626 27.8543 8.75008 26.2502 8.75008ZM17.5002 5.83341C19.1043 5.83341 20.4168 7.14591 20.4168 8.75008H14.5835C14.5835 7.14591 15.896 5.83341 17.5002 5.83341ZM26.2502 29.1667H8.75016V11.6667H11.6668V14.5834C11.6668 15.3855 12.3231 16.0417 13.1252 16.0417C13.9272 16.0417 14.5835 15.3855 14.5835 14.5834V11.6667H20.4168V14.5834C20.4168 15.3855 21.0731 16.0417 21.8752 16.0417C22.6772 16.0417 23.3335 15.3855 23.3335 14.5834V11.6667H26.2502V29.1667Z" fill="#202020"/>
</svg>
